#pragma once

#include <Arduino.h>
#include "../pitches.hpp"

int tetris_melody[] PROGMEM = {
  NOTE_E5, NOTE_B4, NOTE_C5, NOTE_D5, NOTE_C5, NOTE_B4,
  NOTE_A4, NOTE_A4, NOTE_C5, NOTE_E5, NOTE_D5, NOTE_C5,
  NOTE_B4, NOTE_C5, NOTE_D5, NOTE_E5,
  NOTE_C5, NOTE_A4, NOTE_A4, NOTE_A4, NOTE_B4, NOTE_C5,
  
  NOTE_D5, NOTE_F5, NOTE_A5, NOTE_G5, NOTE_F5,
  NOTE_E5, NOTE_C5, NOTE_E5, NOTE_D5, NOTE_C5,
  NOTE_B4, NOTE_B4, NOTE_C5, NOTE_D5, NOTE_E5,
  NOTE_C5, NOTE_A4, NOTE_A4, REST, 
  
  NOTE_E5, NOTE_B4, NOTE_C5, NOTE_D5, NOTE_C5, NOTE_B4,
  NOTE_A4, NOTE_A4, NOTE_C5, NOTE_E5, NOTE_D5, NOTE_C5,
  NOTE_B4, NOTE_C5, NOTE_D5, NOTE_E5,
  NOTE_C5, NOTE_A4, NOTE_A4, NOTE_A4, NOTE_B4, NOTE_C5,
  
  NOTE_D5, NOTE_F5, NOTE_A5, NOTE_G5, NOTE_F5,
  NOTE_E5, NOTE_C5, NOTE_E5, NOTE_D5, NOTE_C5,
  NOTE_B4, NOTE_B4, NOTE_C5, NOTE_D5, NOTE_E5,
  NOTE_C5, NOTE_A4, NOTE_A4, REST, 
  
  NOTE_E5, NOTE_C5,
  NOTE_D5, NOTE_B4,
  NOTE_C5, NOTE_A4,
  NOTE_GS4, NOTE_B4, REST, 
  NOTE_E5, NOTE_C5,
  NOTE_D5, NOTE_B4,
  NOTE_C5, NOTE_E5, NOTE_A5,
  NOTE_GS5
};

int tetris_durations[] PROGMEM = {
  4, 8, 8, 4, 8, 8,
  4, 8, 8, 4, 8, 8,
  4, 8, 4, 4,
  4, 4, 8, 4, 8, 8,
  
  4, 8, 4, 8, 8,
  4, 8, 4, 8, 8,
  4, 8, 8, 4, 4,
  4, 4, 4, 4,
  
  4, 8, 8, 4, 8, 8,
  4, 8, 8, 4, 8, 8,
  4, 8, 4, 4,
  4, 4, 8, 4, 8, 8,
  
  4, 8, 4, 8, 8,
  4, 8, 4, 8, 8,
  4, 8, 8, 4, 4,
  4, 4, 4, 4,
  
  2, 2,
  2, 2,
  2, 2,
  2, 4, 8, 
  2, 2,
  2, 2,
  4, 4, 2,
  2
};